<svg version="1.1" id="Layer_1" xmlns="http://www.w3.org/2000/svg" xmlns:xlink="http://www.w3.org/1999/xlink" x="0px" y="0px" viewBox="0 0 81 81" style="enable-background:new 0 0 81 81;" xml:space="preserve">
 <style type="text/css">
  .st0{fill:#E10915;}
 </style>
 <metadata>
  
   
   
   
   
  
 </metadata>
 <g>
  <path class="st0" d="M0,81h81V0H0V81z M77.7,77.7H3.3V3.3h74.3L77.7,77.7L77.7,77.7z">
  </path>
  <path class="st0" d="M25.5,31.8h14.8v14.8H25.5V31.8z M42.5,31.8v14.8h14.8L42.5,31.8z M25.5,14.7h14.8v14.8H25.5L25.5,14.7z&#xA;&#x9;&#x9; M42.5,14.7v14.8l14.8-14.8H42.5z M18.5,55.4h-2.7l-3.5,4.9v-4.9H9.9v10.7h2.4v-4.8l3.5,4.8h2.8l-4.1-5.5L18.5,55.4z M32.5,63.6&#xA;&#x9;&#x9;c-0.3,0.4-0.8,0.8-1.5,0.8c-0.9,0-1.4-0.6-1.4-1.5v-4h-2.1v4.4c0,1.7,1,2.9,2.7,2.9c1.2,0,1.9-0.6,2.3-1v0.9h2.1v-7.2h-2.1V63.6&#xA;&#x9;&#x9;L32.5,63.6z M51.5,58.9v0.8c-0.4-0.4-1.2-0.9-2.2-0.9c-2,0-3.4,1.7-3.4,3.8c0,2.1,1.4,3.7,3.4,3.7c1.1,0,1.8-0.5,2.2-0.9v0.7h2.1&#xA;&#x9;&#x9;v-7.2L51.5,58.9L51.5,58.9z M51.5,63.8c-0.3,0.3-0.8,0.7-1.5,0.7c-1.1,0-1.9-0.8-1.9-2c0-1.2,0.8-2,1.9-2c0.7,0,1.2,0.4,1.5,0.7&#xA;&#x9;&#x9;V63.8z">
  </path>
  <path class="st0" d="M23.9,58.9v0.8c-0.4-0.4-1.2-0.9-2.2-0.9c-2,0-3.4,1.7-3.4,3.8c0,2.1,1.4,3.7,3.4,3.7c1.1,0,1.8-0.5,2.2-0.9&#xA;&#x9;&#x9;v0.7H26v-7.2L23.9,58.9L23.9,58.9z M23.9,63.8c-0.3,0.3-0.8,0.7-1.5,0.7c-1.1,0-1.9-0.8-1.9-2c0-1.2,0.8-2,1.9-2&#xA;&#x9;&#x9;c0.7,0,1.2,0.4,1.5,0.7V63.8z M69,55.4v4.4c-0.6-0.6-1.4-1-2.3-1c-2,0-3.4,1.7-3.4,3.8c0,2.1,1.4,3.7,3.4,3.7c1.1,0,1.9-0.6,2.3-1&#xA;&#x9;&#x9;v0.8h2.1V55.4L69,55.4L69,55.4z M69,63.7c-0.4,0.5-1,0.8-1.6,0.8c-1.1,0-1.9-0.8-1.9-2c0-1.2,0.8-2,1.9-2c0.6,0,1.2,0.3,1.6,0.8&#xA;&#x9;&#x9;V63.7z M59.5,58.8c-0.9,0-1.7,0.4-2.3,1v-0.9h-2.1v7.2h2.1v-4.7c0.3-0.4,0.8-0.8,1.5-0.8c0.9,0,1.4,0.6,1.4,1.5v4h2.1v-4.4&#xA;&#x9;&#x9;C62.2,60,61.3,58.8,59.5,58.8 M40.1,56.9c0.7,0,1.1,0.3,1.1,0.3l0.3-1.6c0,0-0.6-0.4-1.9-0.4c-1.7,0-2.8,1-2.8,2.9v0.8h-1.1v1.7&#xA;&#x9;&#x9;h1.1v5.4h2.1v-5.4h2.4v-1.7h-2.4v-0.7C38.9,57.4,39.3,56.9,40.1,56.9 M42.5,55.4h2.1v10.7h-2.1V55.4z">
  </path>
 </g>
</svg>